<svg width="317" height="82" viewBox="0 0 317 82" fill="none" xmlns="http://www.w3.org/2000/svg">
<path d="M80.852 30.9964C109.943 23.3568 145.298 16.9979 176.313 9.7059C195.014 5.12536 213.06 3.49714 230.246 2.84344C247.481 2.15562 264.099 2.11237 280.408 0.602171C279.468 2.77319 275.318 6.26802 277.573 7.13844C287.158 9.27144 285.428 13.4818 283.583 17.8779C282.663 20.0613 275.134 18.8995 277.025 20.7285C272.772 21.2857 267.142 21.8941 263.418 22.7433C259.73 23.4873 257.995 24.373 261.644 25.2341C263.437 27.2906 275.578 24.0903 277.09 26.9009C278.576 29.823 271.469 33.7746 272.954 36.6967C275.808 36.4319 281.734 35.4301 284.681 34.9672C286.766 36.6596 279.063 41.9709 282.034 41.4908C290.182 42.073 303 38.2652 316.048 33.8318C315.691 34.8909 316.116 35.6937 315.8 36.618C315.635 37.0918 315.302 37.5906 314.584 38.1734C313.847 38.7437 312.715 39.392 310.982 40.1833C281.989 50.0872 255.952 52.8263 231.262 54.0904C206.556 55.3128 182.952 55.1657 158.396 58.7483C133.928 62.2564 107.061 69.9803 80.3712 75.4179C67.0265 78.1367 53.7198 80.2719 40.915 80.8619C28.1202 81.4581 15.8354 80.4503 4.80316 76.9197C-4.84484 72.8954 5.24474 70.9619 14.5262 69.5555C11.3504 70.1657 13.1433 66.7602 10.0469 67.1955C10.933 65.5662 13.3459 63.7542 16.7923 62.5431C18.5673 61.8415 20.6271 61.2186 22.9067 60.826C25.1862 60.4334 27.657 60.3177 30.4837 60.1644C27.7932 60.0498 25.2898 59.5387 22.7397 59.1267C20.7587 57.6261 24.4229 55.8777 25.5411 53.6879C28.0468 54.1045 30.5382 54.5444 31.1014 53.4201C31.6362 52.3423 32.7342 50.1401 33.269 49.0623C32.0384 48.8516 30.1955 48.5534 28.3425 48.249C26.5037 47.9214 24.6182 47.6928 23.4912 47.2901C25.8061 47.9732 28.3709 48.2025 28.9016 47.1541C29.4607 46.0592 30.5747 43.8988 31.1338 42.8039C32.4804 42.7343 33.883 42.8906 35.2893 43.177C36.7382 43.3936 38.2577 43.6535 39.7814 43.8839C41.3009 44.1438 42.8063 44.4269 44.3263 44.5274C45.8789 44.552 47.3892 44.4868 48.8395 44.2252L50.3489 40.9655C49.171 40.6913 47.7643 40.5644 46.226 40.5166C44.7445 40.3758 43.1699 40.2739 41.577 40.2246C39.9882 40.1458 38.3242 40.2127 36.8528 40.0781C35.3956 39.9203 34.0031 39.7702 32.817 39.5548C35.7726 38.8736 36.3216 37.7726 37.4155 35.5998C39.2873 35.6922 41.155 35.8139 42.9758 36.0348C44.7967 36.2556 46.5241 36.6747 48.3734 36.8491C52.1431 37.0817 55.9555 37.2446 60.7526 35.2318L56.7531 35.4653L52.8857 35.4603C54.8244 34.0605 56.8783 33.402 59.1601 32.915C61.446 32.3986 63.8563 32.2458 66.2803 32.2292C71.2481 32.0457 76.3663 32.2737 80.852 30.9964Z" fill="white"/>
</svg>
